inDegrees=yes
name=ik_lifting_orientations
DataType=double
version=3
OpenSimVersion=4.5-2024-01-10-34fd6af
endheader
time	pelvis_tilt	pelvis_list	pelvis_rotation	pelvis_tx	pelvis_ty	pelvis_tz	hip_flexion_r	hip_adduction_r	hip_rotation_r	knee_angle_r	knee_angle_r_beta	ankle_angle_r	subtalar_angle_r	mtp_angle_r	hip_flexion_l	hip_adduction_l	hip_rotation_l	knee_angle_l	knee_angle_l_beta	ankle_angle_l	subtalar_angle_l	mtp_angle_l	lumbar_extension	lumbar_bending	lumbar_rotation	arm_flex_r	arm_add_r	arm_rot_r	elbow_flex_r	pro_sup_r	wrist_flex_r	wrist_dev_r	arm_flex_l	arm_add_l	arm_rot_l	elbow_flex_l	pro_sup_l	wrist_flex_l	wrist_dev_l
3.22	2.297464996178859	-4.271645207263899	56.33673588700092	0	0.9400000009320483	0	30.98312785303006	-9.703324019092905	0	41.35538034480138	0.7217875504313318	-4.958719303970095	0	0	30.98312785303006	-9.703324019092905	0	41.35538034480138	0.7217875504313318	-4.958719303970095	0	0	4.400937896255027	4.813976705842927	-10.00357888583574	-51.95700783691495	3.032816634316547	2.739207955353776	0.002557141998901594	-31.79159591036218	0	0	0	-6.313801926474574	0	58.29829975980935	-5.408810547560357e-05	0	0
3.23	2.370059366175625	-3.866248022387087	58.5847387839922	0	0.9400000009320483	0	31.20658970195657	-9.7171901053594	0	41.62717889362973	0.7265313300105292	-4.961143068766138	0	0	31.20658970195657	-9.7171901053594	0	41.62717889362973	0.7265313300105292	-4.961143068766138	0	0	3.999755028974144	4.75603549335857	-9.949100262200265	-51.75607788763411	3.229979333735706	3.25148915850304	0.002540321022115865	-31.39628155013703	0	0	0	-6.388126013561434	0	58.69225384398437	-5.466046074634218e-05	0	0
3.24	2.977694416336099	-3.181675639463829	60.29354464412126	0	0.9400000009320483	0	31.45417859078615	-9.731978389790793	0	41.92280437509108	0.7316909680148231	-4.963679588671565	0	0	31.45417859078615	-9.731978389790793	0	41.92280437509108	0.7316909680148231	-4.963679588671565	0	0	3.569278017843298	4.584554811547138	-8.67300981025028	-52.07998004020205	3.712578342105211	3.610524556529322	0.002524737116462307	-30.95853916154228	0	0	0	-6.470589594361511	0	59.12850083139963	-5.529620207289891e-05	0	0
3.25	2.997215186981526	-2.750601723807891	62.52797169641084	0	0.9400000009320483	0	31.6790498667578	-9.744791856684504	0	42.1952637258307	0.7364462807630756	-4.965844931968322	0	0	31.6790498667578	-9.744791856684504	0	42.1952637258307	0.7364462807630756	-4.965844931968322	0	0	3.140506152987559	4.526043338213797	-8.624768533025854	-51.80720741771621	3.305142503987062	4.264632553124909	0.002511748207017703	-30.55899820564135	0	0	0	-6.547010212903047	0	59.52669595101644	-5.588094401920372e-05	0	0
3.26	2.185790219304323	-2.851891693444384	64.25087481026341	0	0.9400000009320483	0	31.91015191320437	-9.757825864602898	0	42.4715251616811	0.7412679524149521	-4.968029923944479	0	0	31.91015191320437	-9.757825864602898	0	42.4715251616811	0.7412679524149521	-4.968029923944479	0	0	4.027975438467307	3.496292140169461	-7.366814986361683	-52.10838252957993	3.896983621241337	4.859080545102617	0.002509119549131002	-30.14889853309723	0	0	0	-6.625229625252366	0	59.93541381057419	-5.648081860283077e-05	0	0
3.27	2.748089237991728	-3.200184995808592	66.09662798573541	0	0.9400000009320483	0	32.12769564388552	-9.769784985165991	0	42.73268973778455	0.7458261341575327	-4.97001422331362	0	0	32.12769564388552	-9.769784985165991	0	42.73268973778455	0.7458261341575327	-4.97001422331362	0	0	4.538595771303312	3.778856452856516	-6.239746488770043	-52.32836594602524	4.676084684519045	5.147556491382783	0.00250222282731012	-29.76204595697221	0	0	0	-6.699458375486406	0	60.32097056286322	-5.70484530719405e-05	0	0
3.28	1.953158017164125	-3.337114156292348	67.84406699013597	0	0.9400000009320483	0	32.39372716224338	-9.783765391547469	0	43.04994234949854	0.7513632367924931	-4.972292547005841	0	0	32.39372716224338	-9.783765391547469	0	43.04994234949854	0.7513632367924931	-4.972292547005841	0	0	4.160160893975487	2.929497021814162	-3.916648297682011	-51.1728726652224	6.065853886982365	4.632282270192078	0.002489525141596664	-29.28788907622271	0	0	0	-6.791162635798029	0	60.79355489051123	-5.774770866303869e-05	0	0
3.29	3.047589263534618	-3.361995866419075	69.0471654823484	0	0.9400000009320483	0	32.63673911209913	-9.796551503709201	0	43.34097285637794	0.7564426773612865	-4.974370579469952	0	0	32.63673911209913	-9.796551503709201	0	43.34097285637794	0.7564426773612865	-4.974370579469952	0	0	3.091223944893597	4.802132992543794	-2.311630989097183	-50.08307360875593	6.334263605661318	3.413563841254986	0.002476904924714978	-28.85466127109048	0	0	0	-6.874824252779758	0	61.22534212125623	-5.838573600883119e-05	0	0
3.3	3.063171490733138	-2.930202059165991	71.30907929132358	0	0.9400000009320483	0	32.81158447140533	-9.804839209029408	0	43.55593527551795	0.7601944793433318	-4.975674317572754	0	0	32.81158447140533	-9.804839209029408	0	43.55593527551795	0.7601944793433318	-4.975674317572754	0	0	3.167609313883798	4.276375022060706	-1.611217943700752	-50.1575983022068	7.187839224709927	3.312372398115883	0.002465339743195012	-28.539606522884	0	0	0	-6.937499717319765	0	61.53937831242916	-5.885671720484055e-05	0	0
3.31	3.248076523559847	-2.226879861231903	74.71662522419361	0	0.9400000009320483	0	33.08474254997606	-9.817272238538804	0	43.88765865451131	0.7659841445126069	-4.977597710280905	0	0	33.08474254997606	-9.817272238538804	0	43.88765865451131	0.7659841445126069	-4.977597710280905	0	0	1.874813144415122	3.915724539908735	-1.726324662093109	-49.01449126051823	8.305106941729948	2.957415883092298	0.002456221627227488	-28.04653101830992	0	0	0	-7.036157762033095	0	62.03087228256424	-5.959672534991135e-05	0	0
3.32	2.586084524575936	-1.10465481749265	77.35254854565224	0	0.9400000009320483	0	33.25577106719705	-9.82453414054663	0	44.10025570732986	0.7696946630643268	-4.978696617751039	0	0	33.25577106719705	-9.82453414054663	0	44.10025570732986	0.7696946630643268	-4.978696617751039	0	0	2.08229369492628	3.056514702513877	-1.789777743037583	-49.71913960495242	8.629681315063397	2.790831030873348	0.002450002369130127	-27.7353165888431	0	0	0	-7.099579660982496	0	62.3411043894307	-6.006774405804232e-05	0	0
3.33	3.061513058563322	-0.9634111722508656	81.45320797368987	0	0.9400000009320483	0	33.48887356591132	-9.834083394453989	0	44.38721197304593	0.7747029947103	-4.980120651188729	0	0	33.48887356591132	-9.834083394453989	0	44.38721197304593	0.7747029947103	-4.980120651188729	0	0	1.850430992032859	3.782111654595425	-2.293506837559778	-49.11042400534267	9.204494904640192	1.832356407428007	0.002433478365457608	-27.31036838490936	0	0	0	-7.186570668020908	0	62.76471920155355	-6.071277623961562e-05	0	0
3.34	2.967324893686496	-0.5500579887410807	83.67542018948799	0	0.9400000009320483	0	33.64302193715235	-9.840376179763563	0	44.57826985035568	0.7780375837312266	-4.981057068568024	0	0	33.64302193715235	-9.840376179763563	0	44.57826985035568	0.7780375837312266	-4.981057068568024	0	0	1.470404188101106	3.871163853962341	-1.967684018516002	-48.86318787547202	9.034233869785911	1.621936005476568	0.002420465531452202	-27.02903775559342	0	0	0	-7.244218176398079	0	63.04516668636226	-6.113974732495548e-05	0	0
3.35	4.101403188542106	-1.009453468632853	87.44225132211598	0	0.9400000009320483	0	33.86207996186391	-9.848941136242781	0	44.84804070434998	0.7827459733593439	-4.982310906938763	0	0	33.86207996186391	-9.848941136242781	0	44.84804070434998	0.7827459733593439	-4.982310906938763	0	0	1.97787965926767	5.229786604639076	-3.215474799927073	-48.63404330244308	8.542301353811325	1.659741700952742	0.002401712491588591	-26.62806052343519	0	0	0	-7.326954332474778	0	63.44489501751045	-6.175071095577995e-05	0	0
3.36	3.984277821637755	-0.5734846992769996	89.66436554726968	0	0.9400000009320483	0	34.05260231727979	-9.856243664557033	0	45.07952402845959	0.7867861195285177	-4.983367867941777	0	0	34.05260231727979	-9.856243664557033	0	45.07952402845959	0.7867861195285177	-4.983367867941777	0	0	0.8914655333160114	4.971996928836085	-2.051662729420634	-47.79339514483893	8.904911798906681	1.574899252668274	0.002388952247464848	-26.27952214276014	0	0	0	-7.398767444827123	0	63.79234878211319	-6.228189324476397e-05	0	0
3.37	3.36611311626748	-0.531684997006742	92.60606935453887	0	0.9400000009320483	0	34.22739939657207	-9.862582470772542	0	45.2954759126573	0.7905551909336532	-4.984269849595362	0	0	34.22739939657207	-9.862582470772542	0	45.2954759126573	0.7905551909336532	-4.984269849595362	0	0	0.9156475133608176	4.600082293009757	-2.414522422108966	-47.61781946304358	8.350868425118048	1.884281470110858	0.002374713065858632	-25.95744988128664	0	0	0	-7.466078222216331	0	64.11343014806795	-6.27756971159409e-05	0	0
3.38	4.110294292816097	-0.4137451971155682	95.84438511498065	0	0.9400000009320483	0	34.42159408007478	-9.869474590563067	0	45.5339049417676	0.7947165625239614	-4.985241308670838	0	0	34.42159408007478	-9.869474590563067	0	45.5339049417676	0.7947165625239614	-4.985241308670838	0	0	1.012513359300113	5.574105580183746	-3.112323621764161	-47.47158220367254	7.743381417863533	2.248819378306867	0.002364061080388012	-25.59923347008754	0	0	0	-7.541093424485696	0	64.47054732411766	-6.33256179939457e-05	0	0
3.39	4.361933245841223	-0.4857305232922667	98.55371162915594	0	0.9400000009320483	0	34.59769555792502	-9.875498050309851	0	45.74953154560484	0.7984799567158147	-4.986078060065181	0	0	34.59769555792502	-9.875498050309851	0	45.74953154560484	0.7984799567158147	-4.986078060065181	0	0	1.178022580545939	6.156278426260171	-2.287648521037994	-47.10490959966653	7.81269907574447	1.863368289988733	0.002352462147349549	-25.27351401905057	0	0	0	-7.609643390962693	0	64.79527250978168	-6.382696530695028e-05	0	0
3.4	4.511833174246287	-1.048808926504189	101.2544358276169	0	0.9400000009320483	0	34.76711323529301	-9.881168287531086	0	45.95829233204199	0.8021235197881958	-4.986860235914665	0	0	34.76711323529301	-9.881168287531086	0	45.95829233204199	0.8021235197881958	-4.986860235914665	0	0	1.155010288788207	6.137887571690781	-1.605503868709498	-46.1822957401103	8.02650179655808	1.803379731514668	0.002343525273243521	-24.95915037566171	0	0	0	-7.676162139031772	0	65.10868003829832	-6.431178525196073e-05	0	0
